<?xml version="1.0" standalone="no"?>
<!DOCTYPE svg PUBLIC "-//W3C//DTD SVG 20010904//EN"
 "http://www.w3.org/TR/2001/REC-SVG-20010904/DTD/svg10.dtd">
<svg version="1.0" xmlns="http://www.w3.org/2000/svg"
 width="23" height="23" viewBox="0 0 24.000000 24.000000"
 preserveAspectRatio="xMidYMid meet">

<g transform="translate(0.000000,24.000000) scale(0.100000,-0.100000)"
fill="#000000" stroke="none">
<path d="M44 196 c-73 -73 -26 -186 77 -186 67 0 109 45 109 116 0 54 -53 104
-110 104 -34 0 -48 -6 -76 -34z m146 -11 c18 -18 25 -36 25 -64 0 -51 -6 -56
-44 -37 -16 9 -39 16 -51 16 -12 0 -35 -7 -51 -16 -37 -19 -44 -14 -44 36 0
88 101 128 165 65z"/>
<path d="M93 193 c-21 -8 -16 -61 7 -73 30 -16 60 4 60 39 0 35 -29 50 -67 34z"/>
</g>
</svg>
