<?xml version="1.0" standalone="no"?>
<!DOCTYPE svg PUBLIC "-//W3C//DTD SVG 20010904//EN"
 "http://www.w3.org/TR/2001/REC-SVG-20010904/DTD/svg10.dtd">
<svg version="1.0" xmlns="http://www.w3.org/2000/svg"
 width="600.000000pt" height="600.000000pt" viewBox="0 0 600.000000 600.000000"
 preserveAspectRatio="xMidYMid meet">

<g transform="translate(0.000000,600.000000) scale(0.100000,-0.100000)"
fill="#000000" stroke="none">
<path d="M2697 3844 l-388 -606 35 -42 c19 -22 47 -56 63 -75 l29 -34 333 307
c183 168 338 306 344 306 13 0 677 -206 681 -212 1 -1 26 -111 55 -243 29
-132 57 -257 62 -277 l10 -38 83 0 84 0 5 33 c3 17 16 121 28 230 23 195 23
201 6 317 -22 147 -40 202 -80 241 -18 17 -171 160 -342 319 l-310 289 -141
46 c-78 25 -148 45 -155 45 -8 0 -189 -273 -402 -606z m1108 8 c-5 -5 -377
118 -392 131 -9 7 -13 49 -13 146 l0 136 205 -205 c112 -112 202 -206 200
-208z"/>
<path d="M2807 4390 c-143 -36 -195 -54 -215 -72 -15 -14 -218 -195 -452 -403
-234 -208 -441 -393 -460 -411 l-35 -34 70 1 70 0 290 270 c341 317 416 384
394 349 -9 -14 -107 -178 -218 -365 -112 -187 -205 -342 -207 -344 -2 -2 -27
7 -56 19 -67 30 -168 33 -216 7 -197 -106 -272 -455 -197 -904 18 -106 70
-322 80 -332 4 -3 12 1 18 10 7 8 161 208 342 443 182 235 331 433 333 440 1
6 -24 44 -58 84 -33 39 -60 74 -60 77 0 4 170 272 378 598 392 613 395 618
390 616 -2 0 -88 -22 -191 -49z"/>
<path d="M4497 3476 c-228 -21 -239 -24 -263 -48 -24 -24 -28 -40 -55 -274
-16 -137 -29 -256 -29 -265 0 -14 -23 -17 -172 -24 -95 -4 -246 -13 -336 -19
-200 -15 -197 -13 -210 -140 -10 -93 -18 -106 -63 -106 -14 0 -36 -11 -48 -24
-21 -22 -23 -31 -16 -83 9 -76 27 -108 66 -122 18 -6 102 -11 195 -11 l164 0
0 -30 c0 -29 2 -30 44 -30 44 0 45 0 48 -37 l3 -38 63 -3 62 -3 0 -134 0 -135
-139 0 c-127 0 -141 -2 -171 -22 -47 -33 -70 -82 -70 -150 l0 -58 344 0 344 0
4 98 c7 160 67 257 178 288 106 29 110 32 110 75 l0 38 63 3 62 3 3 38 c3 37
4 37 48 37 42 0 44 1 44 30 l0 30 183 0 c280 0 287 7 287 272 0 91 -3 174 -6
183 -8 21 -49 41 -101 50 -24 4 -46 12 -50 18 -4 6 -14 102 -23 214 -12 147
-21 208 -33 226 -29 45 -166 149 -214 163 -26 8 -53 13 -62 13 -9 -1 -123 -11
-254 -23z m241 -58 c18 -18 17 -861 0 -875 -8 -6 -126 -13 -276 -16 -302 -6
-296 -7 -287 71 3 26 24 209 46 407 28 255 43 364 53 374 10 9 71 20 188 31
218 22 261 23 276 8z m205 -92 c31 -20 57 -38 57 -39 0 -1 7 -76 15 -167 20
-226 20 -229 -9 -240 -13 -5 -38 -29 -55 -54 -36 -51 -66 -73 -77 -55 -8 14
-25 580 -17 592 7 11 19 6 86 -37z"/>
<path d="M1435 3409 c-532 -36 -684 -53 -777 -88 -103 -40 -187 -137 -223
-258 -42 -143 -71 -522 -60 -786 l7 -158 192 5 c105 3 362 8 571 12 209 3 381
7 383 8 1 2 -6 37 -17 77 -51 185 -91 450 -91 599 0 264 77 484 202 577 l32
23 -50 -1 c-27 -1 -103 -5 -169 -10z"/>
<path d="M2031 2532 l-344 -446 13 -49 c7 -27 22 -80 34 -117 l21 -69 116 162
c63 89 207 289 319 445 l203 282 -9 119 -9 119 -344 -446z"/>
<path d="M3150 2149 c-41 -16 -106 -38 -144 -49 -84 -24 -124 -53 -158 -116
-75 -140 -58 -357 38 -463 l42 -46 203 -3 204 -3 -35 23 c-22 15 -47 48 -69
90 -30 60 -35 78 -39 166 -6 133 19 222 81 286 35 36 56 48 127 69 47 15 112
37 145 51 l60 25 -190 0 c-187 0 -191 -1 -265 -30z"/>
<path d="M4650 2145 c-47 -19 -114 -42 -149 -51 -104 -29 -159 -102 -182 -244
-21 -125 17 -273 87 -341 l35 -34 202 -3 c200 -3 202 -2 174 16 -77 52 -112
144 -112 297 0 104 2 114 32 176 18 35 43 75 57 88 14 13 85 43 166 71 78 26
144 51 147 54 4 3 -79 6 -183 5 l-189 0 -85 -34z"/>
<path d="M5220 2150 c-19 -4 -73 -20 -120 -37 -47 -17 -109 -36 -139 -43 -41
-10 -65 -23 -96 -55 -58 -57 -80 -124 -80 -240 0 -83 3 -96 35 -160 60 -119
43 -115 439 -115 386 0 377 -2 430 91 103 181 36 438 -125 478 -27 7 -92 27
-144 46 -108 38 -150 46 -200 35z m-31 -116 c51 -65 -7 -185 -62 -129 -33 32
-32 100 1 138 21 24 37 21 61 -9z m230 12 c33 -39 20 -139 -20 -151 -26 -8
-38 1 -55 41 -30 72 32 162 75 110z m-395 -77 c50 -39 70 -94 70 -189 0 -68
-4 -93 -22 -127 -40 -77 -107 -104 -161 -67 -40 28 -71 110 -71 188 0 88 16
140 56 182 38 41 86 46 128 13z m606 -17 c47 -47 64 -103 58 -197 -8 -117 -55
-185 -129 -185 -132 0 -178 288 -64 389 50 44 87 42 135 -7z"/>
<path d="M383 1973 c4 -54 10 -196 13 -315 l7 -218 42 0 43 0 25 108 c56 237
55 213 17 376 l-34 146 -59 0 -60 0 6 -97z"/>
<path d="M733 1918 c4 -84 10 -226 13 -315 l7 -163 43 0 c37 0 44 3 49 23 3
12 20 88 38 168 l34 146 -36 147 -35 146 -59 0 -60 0 6 -152z"/>
<path d="M1097 2063 c-2 -4 2 -132 9 -283 7 -151 13 -290 13 -307 1 -32 2 -33
44 -33 l43 0 38 169 38 169 -35 143 -34 144 -56 3 c-30 2 -57 -1 -60 -5z"/>
<path d="M1441 2018 c0 -29 6 -170 12 -313 l12 -260 42 -3 c48 -4 40 -21 87
183 l34 150 -35 148 -35 147 -59 0 -59 0 1 -52z"/>
</g>
</svg>
