<svg width="55" height="41" viewBox="0 0 55 41" fill="none" xmlns="http://www.w3.org/2000/svg">
<g clip-path="url(#clip0_2_75)">
<path d="M37.3899 17.3602C37.3899 20.6818 36.5665 23.9727 35.0086 26.8773C34.6957 27.4613 34.0864 27.8244 33.4183 27.8244C32.7745 27.8244 32.1928 27.4933 31.8625 26.9385C31.5329 26.3847 31.5177 25.7152 31.8225 25.1473C32.4278 24.0186 32.8973 22.8278 33.223 21.5966L33.1675 21.5969C31.0004 21.5969 29.1529 19.9058 28.9615 17.7467C28.8547 16.5407 29.2417 15.3874 30.0511 14.4997C30.8493 13.6245 31.9851 13.1224 33.1666 13.1224C33.509 13.1224 33.8514 13.1644 34.1837 13.2468C36.0713 13.7149 37.3899 15.4066 37.3899 17.3602ZM22.8501 13.2998C22.5177 13.2173 22.1753 13.1753 21.8326 13.1753C20.6511 13.1753 19.5154 13.6774 18.7172 14.5527C17.9077 15.4403 17.5208 16.5937 17.6275 17.7997C17.8189 19.9591 19.6664 21.6502 21.8335 21.6502L21.889 21.6498C21.5633 22.8811 21.0939 24.0719 20.4888 25.2003C20.1841 25.7678 20.1989 26.4376 20.5286 26.9915C20.8588 27.5462 21.4405 27.8776 22.0843 27.8776C22.7521 27.8776 23.3617 27.5146 23.675 26.9303C25.2325 24.0259 26.0559 20.7351 26.0559 17.4135C26.0559 15.4595 24.7373 13.7678 22.8501 13.2998ZM36.2594 2.479L49.4797 10.6087C56.8401 15.1348 56.8401 25.8652 49.4797 30.3913L36.2594 38.521C30.8843 41.8263 24.1157 41.8263 18.7406 38.521L5.52027 30.3913C-1.84009 25.8652 -1.84009 15.1348 5.52026 10.6087L18.7406 2.479C24.1157 -0.826333 30.8843 -0.826333 36.2594 2.479ZM9.01741 26.7413L18.7409 32.72C24.1159 36.0249 30.8841 36.0247 36.2589 32.7196L45.9812 26.7411C50.6256 23.8852 50.6258 17.1145 45.9816 14.2583L36.2598 8.27922C30.8845 4.97337 24.1154 4.97324 18.74 8.27889L9.01702 14.2581C4.37255 17.1143 4.37276 23.8854 9.01741 26.7413Z" fill="black"/>
</g>
<defs>
<clipPath id="clip0_2_75">
<rect width="55" height="41"/>
</clipPath>
</defs>
</svg>
