<?xml version="1.0" encoding="utf-8"?>
<!-- Generator: Adobe Illustrator 27.0.0, SVG Export Plug-In . SVG Version: 6.00 Build 0)  -->
<svg version="1.1" id="Layer_1" xmlns="http://www.w3.org/2000/svg" xmlns:xlink="http://www.w3.org/1999/xlink" x="0px" y="0px"
	 viewBox="0 0 19.8 21.5" style="enable-background:new 0 0 19.8 21.5;" xml:space="preserve">
<path d="M18.5,7.2c-0.1-1.1-1-1.9-2.1-1.9h-1.8c-0.1-1.1-0.5-3-1.4-3.9S11.1,0,9.9,0S7.4,0.5,6.5,1.4S5.2,4.1,5.2,5.2H3.4
	c-0.5,0-1,0.2-1.4,0.5C1.6,6.2,1.3,6.6,1.3,7.2L0,19.2c0,0.3,0,0.6,0.1,0.9s0.2,0.5,0.5,0.8C0.8,21,1,21.2,1.3,21.3s0.6,0.2,0.9,0.2
	h15.5c0.6,0,1.2-0.3,1.6-0.7c0.4-0.5,0.6-1,0.5-1.6C19.8,19.2,18.5,7.2,18.5,7.2z M7.9,2.8c1-1,2.9-1,3.9,0c0.3,0.3,0.7,1.5,0.8,2.4
	H7.2C7.3,4.3,7.6,3.2,7.9,2.8z M17.7,19.5H2.1L2,19.4l1.2-12l0.1-0.1h13c0.1,0,0.1,0,0.1,0.1l1.3,12C17.8,19.4,17.7,19.4,17.7,19.5z
	"/>
</svg>
