<svg width="21" height="21" viewBox="0 0 21 21" fill="none" xmlns="http://www.w3.org/2000/svg">
<g clip-path="url(#clip0_505_49)">
<path d="M19.76 6.98C19.7 6.48 19.47 6.01 19.09 5.66C18.7 5.32 18.21 5.13 17.69 5.13H15.11C15.03 4.04 14.66 2.23 13.79 1.36C12.92 0.49 11.73 0 10.5 0C9.27003 0 8.10003 0.49 7.22003 1.36C6.35003 2.23 5.98003 4.04 5.89003 5.13H3.31003C2.79003 5.13 2.30003 5.32 1.91003 5.66C1.53003 6.01 1.30003 6.48 1.24003 6.98L0.0100293 18.7C-0.0199707 19 0.0100293 19.29 0.100029 19.56C0.190029 19.85 0.340029 20.1 0.530029 20.32C0.730029 20.53 0.960029 20.71 1.23003 20.82C1.50003 20.94 1.79003 20.99 2.07003 20.99H8.84003L12.29 21L18.93 20.99C19.21 20.99 19.5 20.94 19.77 20.82C20.04 20.71 20.27 20.53 20.47 20.32C20.66 20.1 20.81 19.85 20.9 19.56C20.99 19.29 21.02 19 20.99 18.7L19.76 6.98ZM8.60003 2.74C8.67003 2.68 8.74003 2.62 8.80003 2.57C9.70003 1.86 11.04 1.8 12 2.41C12.15 2.51 12.28 2.62 12.4 2.74C12.74 3.08 13.06 4.24 13.16 5.13H7.85003C7.94003 4.24 8.27003 3.08 8.60003 2.74ZM18.93 19.05H2.07003L1.99003 19.01L3.18003 7.18L3.31003 7.08H17.69L17.82 7.18L19.01 19.01L18.93 19.05Z" fill="black" style="fill:black;fill:black;fill-opacity:1;"/>
</g>
<defs>
<clipPath id="clip0_505_49">
<rect width="21" height="21" fill="white" style="fill:white;fill:white;fill-opacity:1;"/>
</clipPath>
</defs>
</svg>
