<svg width="30" height="29" viewBox="0 0 30 29" fill="none" xmlns="http://www.w3.org/2000/svg">
<path d="M15.4617 1.41194L18.8003 9.43908C19.0163 9.95843 19.5048 10.3133 20.0654 10.3582L28.7314 11.053C29.1747 11.0885 29.3545 11.6418 29.0167 11.9311L22.4142 17.5869C21.987 17.9528 21.8004 18.527 21.9309 19.0741L23.9481 27.5306C24.0513 27.9632 23.5807 28.3052 23.2012 28.0733L15.7819 23.5417C15.3019 23.2485 14.6981 23.2485 14.2181 23.5417L6.79884 28.0733C6.4193 28.3052 5.94867 27.9632 6.05186 27.5306L8.06905 19.0741C8.19956 18.527 8.013 17.9528 7.58582 17.5869L0.983271 11.9311C0.645505 11.6418 0.825265 11.0885 1.26859 11.053L9.93456 10.3582C10.4952 10.3133 10.9837 9.95843 11.1997 9.43907L14.5383 1.41194C14.7091 1.0013 15.2909 1.0013 15.4617 1.41194Z" stroke="black"/>
</svg>
