<svg width="21" height="21" viewBox="0 0 21 21" fill="none" xmlns="http://www.w3.org/2000/svg">
<path fill-rule="evenodd" clip-rule="evenodd" d="M20.7692 1C20.7692 1.55228 20.3215 2 19.7692 2H1C0.447715 2 0 1.55228 0 1V1C0 0.447715 0.447715 0 1 0H19.7692C20.3215 0 20.7692 0.447715 20.7692 1V1Z" fill="black" style="fill:black;fill:black;fill-opacity:1;"/>
<path fill-rule="evenodd" clip-rule="evenodd" d="M20.7692 10.1385C20.7692 10.6908 20.3215 11.1385 19.7692 11.1385H1C0.447715 11.1385 0 10.6908 0 10.1385V10.1385C0 9.5862 0.447715 9.13849 1 9.13849H19.7692C20.3215 9.13849 20.7692 9.5862 20.7692 10.1385V10.1385Z" fill="black" style="fill:black;fill:black;fill-opacity:1;"/>
<path fill-rule="evenodd" clip-rule="evenodd" d="M20.7692 19.2769C20.7692 19.8292 20.3215 20.2769 19.7692 20.2769H1C0.447715 20.2769 0 19.8292 0 19.2769V19.2769C0 18.7246 0.447715 18.2769 1 18.2769H19.7692C20.3215 18.2769 20.7692 18.7246 20.7692 19.2769V19.2769Z" fill="black" style="fill:black;fill:black;fill-opacity:1;"/>
</svg>
