<svg width="22" height="22" viewBox="0 0 22 22" fill="none" xmlns="http://www.w3.org/2000/svg">
<path d="M11 21C13.2167 20.9999 15.3705 20.2636 17.1234 18.9067C18.8762 17.5498 20.1288 15.6492 20.6844 13.5033M11 21C8.78334 20.9999 6.62949 20.2636 4.87664 18.9067C3.12379 17.5498 1.8712 15.6492 1.31556 13.5033M11 21C13.7611 21 15 16.5222 15 11C15 5.47778 13.7611 1 11 1M11 21C8.23889 21 7 16.5222 7 11C7 5.47778 8.23889 1 11 1M20.6844 13.5033C20.89 12.7033 21 11.8644 21 11C21.0027 9.28013 20.5598 7.58888 19.7145 6.09111M20.6844 13.5033C17.7213 15.146 14.388 16.0053 11 16C7.48667 16 4.18556 15.0944 1.31556 13.5033M1.31556 13.5033C1.10528 12.6855 0.999253 11.8444 1 11C1 9.21667 1.46667 7.54111 2.28556 6.09111M11 1C12.7736 0.999261 14.5155 1.4704 16.0469 2.36507C17.5783 3.25975 18.8441 4.54574 19.7145 6.09111M11 1C9.2264 0.999261 7.48454 1.4704 5.95312 2.36507C4.42171 3.25975 3.1559 4.54574 2.28556 6.09111M19.7145 6.09111C17.2952 8.18659 14.2006 9.33794 11 9.33333C7.66889 9.33333 4.62223 8.11111 2.28556 6.09111" stroke="black" stroke-width="2" stroke-linecap="round" stroke-linejoin="round"/>
</svg>
