<svg width="22" height="22" viewBox="0 0 22 22" fill="none" xmlns="http://www.w3.org/2000/svg">
<path d="M10.9854 0C4.95467 0 0.0488281 4.90584 0.0488281 10.9366C0.0488281 16.9673 4.95467 21.8732 10.9854 21.8732C17.0162 21.8732 21.922 16.9673 21.922 10.9366C21.922 4.90584 17.0162 0 10.9854 0ZM10.9854 19.8838C9.97509 19.8838 9.15223 18.7276 8.63144 16.759C9.41263 16.8423 10.1938 16.8944 10.9854 16.8944H11.0167C11.7978 16.8944 12.5686 16.8423 13.3394 16.759C12.8186 18.7276 11.9958 19.8838 10.9854 19.8838ZM11.0167 14.9154H10.9854C10.0584 14.9154 9.14182 14.8425 8.23565 14.7071C8.08983 13.5926 8.0065 12.3219 8.0065 10.9366C8.0065 10.6033 8.0065 10.27 8.01691 9.94709C8.98558 10.1554 9.97509 10.27 10.9854 10.27H11.0062C12.0062 10.27 12.9957 10.1554 13.9539 9.94709C13.9539 10.27 13.9643 10.5929 13.9643 10.9366C13.9643 12.3219 13.881 13.5926 13.7352 14.7071C12.8394 14.8425 11.9333 14.9154 11.0167 14.9154ZM2.03825 10.9366C2.03825 9.7596 2.26739 8.6347 2.68402 7.60353C3.7256 8.35347 4.86093 8.94717 6.04833 9.38464C6.0275 9.88459 6.01708 10.395 6.01708 10.9262C6.01708 12.1344 6.07958 13.2593 6.18373 14.2801C4.80885 13.9155 3.48604 13.4051 2.22573 12.7385C2.10074 12.1552 2.03825 11.5407 2.03825 10.9262V10.9366ZM10.9854 1.98942C12.4124 1.98942 13.4644 4.29131 13.8289 7.94726C12.9123 8.16599 11.9645 8.29098 11.0062 8.29098H10.9958C10.0272 8.29098 9.07933 8.16599 8.15232 7.94726C8.51687 4.29131 9.56887 1.99983 10.9958 1.99983L10.9854 1.98942ZM15.9225 9.39505C17.1099 8.95759 18.2452 8.35347 19.2868 7.61395C19.7034 8.64511 19.9326 9.77002 19.9326 10.9366C19.9326 11.5615 19.8701 12.1657 19.7451 12.7489C18.4848 13.4051 17.162 13.9259 15.7871 14.2905C15.8913 13.2593 15.9538 12.1448 15.9538 10.9366C15.9538 10.4054 15.9433 9.89501 15.9225 9.39505ZM18.3286 5.83285C17.537 6.42655 16.6724 6.91609 15.7663 7.30148C15.5475 5.44746 15.1622 3.92676 14.6101 2.74977C16.1204 3.41638 17.4015 4.48921 18.339 5.82243L18.3286 5.83285ZM7.37113 2.76019C6.8191 3.92676 6.4233 5.45788 6.21498 7.30148C5.30881 6.91609 4.44429 6.42655 3.65269 5.83285C4.5797 4.49963 5.87126 3.4268 7.37113 2.76019ZM3.25689 15.4258C4.30889 15.8424 5.40255 16.1653 6.50662 16.4049C6.72536 17.4465 7.017 18.3526 7.37113 19.113C5.64211 18.3422 4.20473 17.0402 3.25689 15.4258ZM14.6101 19.113C14.9643 18.3526 15.2559 17.4569 15.4746 16.4049C16.5787 16.1653 17.6724 15.8424 18.7244 15.4154C17.7765 17.0402 16.3391 18.3422 14.6101 19.1026V19.113Z" fill="black" fill-opacity="0.9" style="fill:black;fill:black;fill-opacity:1;"/>
</svg>
