<?xml version="1.0" encoding="utf-8"?>
<!-- Generator: Adobe Illustrator 27.0.0, SVG Export Plug-In . SVG Version: 6.00 Build 0)  -->
<svg version="1.1" id="Layer_2_00000039113191801891039570000014130414329916295599_"
	 xmlns="http://www.w3.org/2000/svg" xmlns:xlink="http://www.w3.org/1999/xlink" x="0px" y="0px" viewBox="0 0 55 41"
	 style="enable-background:new 0 0 55 41;" xml:space="preserve">
<style type="text/css">
	.st0{clip-path:url(#SVGID_00000062872558157842533170000011337616503063502511_);}
	.st1{fill:#FFFFFF;}
</style>
<g id="Layer_1-2">
	<g>
		<g>
			<defs>
				<rect id="SVGID_1_" width="55" height="41"/>
			</defs>
			<clipPath id="SVGID_00000065063404686638467090000010272431738149775264_">
				<use xlink:href="#SVGID_1_"  style="overflow:visible;"/>
			</clipPath>
			<g style="clip-path:url(#SVGID_00000065063404686638467090000010272431738149775264_);">
				<path class="st1" d="M37.4,17.4c0,3.3-0.8,6.6-2.4,9.5c-0.3,0.6-0.9,1-1.6,1s-1.2-0.3-1.6-0.9c-0.3-0.5-0.3-1.2,0-1.8
					c0.6-1.1,1.1-2.3,1.4-3.5h-0.1c-2.2,0-4-1.7-4.2-3.9c-0.1-1.2,0.3-2.4,1.1-3.2c0.8-0.9,1.9-1.4,3.1-1.4c0.3,0,0.7,0,1,0.1
					C36.1,13.7,37.4,15.4,37.4,17.4L37.4,17.4z M22.8,13.3c-0.3-0.1-0.7-0.1-1-0.1c-1.2,0-2.3,0.5-3.1,1.4c-0.8,0.9-1.2,2-1.1,3.2
					c0.2,2.2,2,3.9,4.2,3.9h0.1c-0.3,1.2-0.8,2.4-1.4,3.5c-0.3,0.6-0.3,1.2,0,1.8c0.3,0.5,0.9,0.9,1.6,0.9s1.3-0.4,1.6-1
					c1.6-2.9,2.4-6.2,2.4-9.5C26.1,15.5,24.7,13.8,22.8,13.3L22.8,13.3z M36.3,2.5l13.2,8.1c7.4,4.5,7.4,15.3,0,19.8l-13.2,8.1
					c-5.4,3.3-12.1,3.3-17.5,0L5.5,30.4c-7.4-4.5-7.4-15.3,0-19.8l13.2-8.1C24.1-0.8,30.9-0.8,36.3,2.5z M9,26.7l9.7,6
					c5.4,3.3,12.1,3.3,17.5,0l9.7-6c4.6-2.9,4.6-9.6,0-12.5l-9.7-6C30.9,5,24.1,5,18.7,8.3l-9.7,6C4.4,17.1,4.4,23.9,9,26.7z"/>
			</g>
		</g>
	</g>
</g>
</svg>
