<svg width="22" height="22" viewBox="0 0 22 22" fill="none" xmlns="http://www.w3.org/2000/svg">
<path d="M17.8735 16.2799C17.4985 15.9153 17.4152 15.3321 17.7069 14.8946C18.7172 13.3426 19.2692 11.5095 19.2692 9.64503C19.2692 7.07233 18.2693 4.65586 16.4465 2.8331C14.6342 1.01033 12.2073 0 9.63462 0C7.06191 0 4.63503 1.01033 2.82268 2.82268C0.999917 4.64545 0 7.06191 0 9.63462C0 12.2073 1.03116 14.655 2.82268 16.4465C4.63503 18.2693 7.06191 19.2692 9.63462 19.2692C11.5199 19.2692 13.3426 18.7276 14.8842 17.7173C15.3216 17.4361 15.9049 17.509 16.2799 17.8839L19.9358 21.5399C20.3837 21.9878 21.1024 21.9878 21.5399 21.5399C21.9878 21.092 21.9878 20.3733 21.5399 19.9254L17.8735 16.2695V16.2799ZM14.8529 14.8529C13.4572 16.2382 11.6136 17.009 9.63462 17.009C7.65561 17.009 5.81202 16.2486 4.4163 14.8529C3.04141 13.478 2.26023 11.572 2.26023 9.63462C2.26023 7.69728 3.04141 5.79119 4.4163 4.4163C5.81202 3.031 7.65561 2.26023 9.63462 2.26023C11.6136 2.26023 13.4572 3.031 14.8529 4.4163C16.2382 5.81202 17.009 7.66603 17.009 9.63462C17.009 11.6032 16.2278 13.478 14.8529 14.8529Z" fill="black" fill-opacity="0.9" style="fill:black;fill:black;fill-opacity:1;"/>
</svg>
