<svg width="144" height="48" viewBox="0 0 144 48" fill="none" xmlns="http://www.w3.org/2000/svg">
<path d="M24.908 5.96725C24.5505 5.19266 23.4495 5.19266 23.092 5.96725L18.2475 16.4637C18.0948 16.7945 17.7743 17.0161 17.4108 17.0421L6.32953 17.8336C5.45225 17.8963 5.07732 18.9794 5.7281 19.571L14.5743 27.613C14.8379 27.8526 14.9541 28.2143 14.8795 28.5625L12.4745 39.7856C12.2925 40.6351 13.2058 41.2966 13.9562 40.8589L23.4961 35.2939C23.8075 35.1123 24.1925 35.1123 24.5039 35.2939L34.0438 40.8589C34.7942 41.2966 35.7075 40.6351 35.5255 39.7856L33.1205 28.5625C33.0459 28.2143 33.1621 27.8526 33.4257 27.613L42.2719 19.571C42.9227 18.9794 42.5477 17.8963 41.6705 17.8336L30.5892 17.0421C30.2257 17.0161 29.9052 16.7945 29.7525 16.4637L24.908 5.96725Z" fill="black"/>
<path d="M66.7015 16.6732L71.546 6.17677C71.7248 5.78948 72.2752 5.78948 72.454 6.17678L77.2985 16.6732C77.5275 17.1695 78.0084 17.5019 78.5536 17.5408L89.6348 18.3323C90.0735 18.3637 90.261 18.9052 89.9356 19.201L81.0893 27.2431C80.694 27.6024 80.5197 28.1449 80.6316 28.6673L83.0366 39.8903C83.1276 40.3151 82.671 40.6459 82.2957 40.427L72.7558 34.862C72.2888 34.5896 71.7112 34.5896 71.2442 34.862L61.7043 40.427C61.329 40.6459 60.8724 40.3151 60.9634 39.8903L63.3684 28.6673C63.4803 28.1449 63.306 27.6024 62.9107 27.2431L54.0644 19.201C53.739 18.9052 53.9265 18.3637 54.3652 18.3323L65.4464 17.5408C65.9916 17.5019 66.4725 17.1695 66.7015 16.6732Z" stroke="black"/>
<path d="M114.702 16.6732L119.546 6.17677C119.725 5.78948 120.275 5.78948 120.454 6.17678L125.298 16.6732C125.528 17.1695 126.008 17.5019 126.554 17.5408L137.635 18.3323C138.073 18.3637 138.261 18.9052 137.936 19.201L129.089 27.2431C128.694 27.6024 128.52 28.1449 128.632 28.6673L131.037 39.8903C131.128 40.3151 130.671 40.6459 130.296 40.427L120.756 34.862C120.289 34.5896 119.711 34.5896 119.244 34.862L109.704 40.427C109.329 40.6459 108.872 40.3151 108.963 39.8903L111.368 28.6673C111.48 28.1449 111.306 27.6024 110.911 27.2431L102.064 19.201C101.739 18.9052 101.927 18.3637 102.365 18.3323L113.446 17.5408C113.992 17.5019 114.472 17.1695 114.702 16.6732Z" fill="#FFCB44" stroke="black"/>
</svg>
